<svg id="Layer_1" data-name="Layer 1" xmlns="http://www.w3.org/2000/svg" xmlns:xlink="http://www.w3.org/1999/xlink" viewBox="0 0 48.04 48.4"><defs><style>.cls-1{fill:url(#radial-gradient);}.cls-2{fill:#fff;}.cls-3{fill:#046180;}</style><radialGradient id="radial-gradient" cx="348" cy="-62.98" r="15.28" gradientTransform="matrix(1.58, 0, 0, -1.58, -146.05, 194.55)" gradientUnits="userSpaceOnUse"><stop offset="0.02" stop-color="#fff"/><stop offset="0.65" stop-color="#e6e6e6"/><stop offset="1" stop-color="#dfdfdf"/></radialGradient></defs><title>Long icon</title><path class="cls-1" d="M427.1,293.94a24,24,0,1,1-24-24.2A24.11,24.11,0,0,1,427.1,293.94Z" transform="translate(-379.07 -269.74)"/><path class="cls-2" d="M414.44,288.05a1.82,1.82,0,0,0,.52-1.51,2,2,0,0,0-.57-1.17l-1.28-1.28a2,2,0,0,0-1.39-.58,1.81,1.81,0,0,0-1.29.53l-1.88,1.88-.16.18a11.5,11.5,0,0,0-1.17-.59,2,2,0,0,0,.14-.74v-2.4a2,2,0,0,0-2-2H400a2,2,0,0,0-2,2v2.4a2,2,0,0,0,.14.74A11.47,11.47,0,1,0,412.44,290l.11-.1Z" transform="translate(-379.07 -269.74)"/><path class="cls-3" d="M411.89,285.19a.34.34,0,0,0-.47-.06L409.54,287a.34.34,0,0,0,.06.47l1.28,1.28a.34.34,0,0,0,.47.06l1.89-1.89a.34.34,0,0,0-.06-.47Z" transform="translate(-379.07 -269.74)"/><path class="cls-3" d="M392.66,296a9.91,9.91,0,1,0,11.5-9.78v-1.06h1.09a.44.44,0,0,0,.44-.44v-2.4a.44.44,0,0,0-.44-.44h-5.36a.44.44,0,0,0-.44.44v2.4a.44.44,0,0,0,.44.44H401v1.06A9.92,9.92,0,0,0,392.66,296Zm17.09,0a7.19,7.19,0,0,1-7.19,7.19V288.9A7.19,7.19,0,0,1,409.76,296.09Z" transform="translate(-379.07 -269.74)"/></svg>